<svg xmlns="http://www.w3.org/2000/svg" xmlns:xlink="http://www.w3.org/1999/xlink" width="500" zoomAndPan="magnify" viewBox="0 0 375 615.000004" height="820" preserveAspectRatio="xMidYMid meet" version="1.0"><defs><clipPath id="64707d79e3"><path d="M 11 25 L 364 25 L 364 589 L 11 589 Z M 11 25 " clip-rule="nonzero"/></clipPath><clipPath id="f1b3700b6e"><path d="M 188.15625 25.445312 C 91.976562 25.445312 11.921875 108.703125 11.921875 199.039062 C 11.921875 239.679688 34.808594 291.324219 51.34375 326.988281 L 187.511719 588.445312 L 323.039062 326.988281 C 339.574219 291.324219 363.101562 242.269531 363.101562 199.039062 C 363.101562 108.703125 284.335938 25.445312 188.15625 25.445312 Z M 188.15625 130.121094 C 225.96875 130.371094 256.621094 161.164062 256.621094 199.023438 C 256.621094 236.886719 225.96875 267.242188 188.15625 267.476562 C 150.347656 267.226562 119.691406 236.902344 119.691406 199.023438 C 119.691406 161.164062 150.347656 130.371094 188.15625 130.121094 Z M 188.15625 130.121094 " clip-rule="evenodd"/></clipPath><linearGradient x1="-0.0292011" gradientTransform="matrix(0.000000000000033658, -549.569225, 549.683849, 0.000000000000033651, 186.855049, 572.398337)" y1="0" x2="0.995236" gradientUnits="userSpaceOnUse" y2="0" id="4bf672f3d0"><stop stop-opacity="1" stop-color="rgb(7.099915%, 43.499756%, 77.598572%)" offset="0"/><stop stop-opacity="1" stop-color="rgb(7.130432%, 43.52417%, 77.604675%)" offset="0.03125"/><stop stop-opacity="1" stop-color="rgb(7.344055%, 43.690491%, 77.6474%)" offset="0.046875"/><stop stop-opacity="1" stop-color="rgb(7.70874%, 43.974304%, 77.71759%)" offset="0.0625"/><stop stop-opacity="1" stop-color="rgb(8.071899%, 44.256592%, 77.787781%)" offset="0.078125"/><stop stop-opacity="1" stop-color="rgb(8.435059%, 44.540405%, 77.857971%)" offset="0.09375"/><stop stop-opacity="1" stop-color="rgb(8.798218%, 44.824219%, 77.928162%)" offset="0.109375"/><stop stop-opacity="1" stop-color="rgb(9.161377%, 45.106506%, 77.998352%)" offset="0.125"/><stop stop-opacity="1" stop-color="rgb(9.524536%, 45.39032%, 78.068542%)" offset="0.140625"/><stop stop-opacity="1" stop-color="rgb(9.887695%, 45.674133%, 78.140259%)" offset="0.15625"/><stop stop-opacity="1" stop-color="rgb(10.250854%, 45.956421%, 78.210449%)" offset="0.171875"/><stop stop-opacity="1" stop-color="rgb(10.61554%, 46.240234%, 78.28064%)" offset="0.1875"/><stop stop-opacity="1" stop-color="rgb(10.978699%, 46.524048%, 78.35083%)" offset="0.203125"/><stop stop-opacity="1" stop-color="rgb(11.341858%, 46.806335%, 78.421021%)" offset="0.21875"/><stop stop-opacity="1" stop-color="rgb(11.705017%, 47.090149%, 78.491211%)" offset="0.234375"/><stop stop-opacity="1" stop-color="rgb(12.068176%, 47.373962%, 78.562927%)" offset="0.25"/><stop stop-opacity="1" stop-color="rgb(12.431335%, 47.65625%, 78.633118%)" offset="0.265625"/><stop stop-opacity="1" stop-color="rgb(12.794495%, 47.940063%, 78.703308%)" offset="0.28125"/><stop stop-opacity="1" stop-color="rgb(13.157654%, 48.223877%, 78.773499%)" offset="0.296875"/><stop stop-opacity="1" stop-color="rgb(13.522339%, 48.506165%, 78.843689%)" offset="0.3125"/><stop stop-opacity="1" stop-color="rgb(13.885498%, 48.789978%, 78.913879%)" offset="0.328125"/><stop stop-opacity="1" stop-color="rgb(14.248657%, 49.073792%, 78.985596%)" offset="0.34375"/><stop stop-opacity="1" stop-color="rgb(14.611816%, 49.357605%, 79.055786%)" offset="0.359375"/><stop stop-opacity="1" stop-color="rgb(14.974976%, 49.639893%, 79.125977%)" offset="0.375"/><stop stop-opacity="1" stop-color="rgb(15.338135%, 49.923706%, 79.196167%)" offset="0.390625"/><stop stop-opacity="1" stop-color="rgb(15.701294%, 50.20752%, 79.266357%)" offset="0.40625"/><stop stop-opacity="1" stop-color="rgb(16.064453%, 50.489807%, 79.336548%)" offset="0.421875"/><stop stop-opacity="1" stop-color="rgb(16.429138%, 50.773621%, 79.406738%)" offset="0.4375"/><stop stop-opacity="1" stop-color="rgb(16.792297%, 51.057434%, 79.478455%)" offset="0.453125"/><stop stop-opacity="1" stop-color="rgb(17.155457%, 51.339722%, 79.548645%)" offset="0.46875"/><stop stop-opacity="1" stop-color="rgb(17.518616%, 51.623535%, 79.618835%)" offset="0.484375"/><stop stop-opacity="1" stop-color="rgb(17.881775%, 51.907349%, 79.689026%)" offset="0.5"/><stop stop-opacity="1" stop-color="rgb(18.244934%, 52.189636%, 79.759216%)" offset="0.515625"/><stop stop-opacity="1" stop-color="rgb(18.608093%, 52.47345%, 79.829407%)" offset="0.53125"/><stop stop-opacity="1" stop-color="rgb(18.972778%, 52.757263%, 79.901123%)" offset="0.546875"/><stop stop-opacity="1" stop-color="rgb(19.335938%, 53.039551%, 79.971313%)" offset="0.5625"/><stop stop-opacity="1" stop-color="rgb(19.699097%, 53.323364%, 80.041504%)" offset="0.578125"/><stop stop-opacity="1" stop-color="rgb(20.062256%, 53.607178%, 80.111694%)" offset="0.59375"/><stop stop-opacity="1" stop-color="rgb(20.425415%, 53.889465%, 80.181885%)" offset="0.609375"/><stop stop-opacity="1" stop-color="rgb(20.788574%, 54.173279%, 80.252075%)" offset="0.625"/><stop stop-opacity="1" stop-color="rgb(21.151733%, 54.457092%, 80.323792%)" offset="0.640625"/><stop stop-opacity="1" stop-color="rgb(21.514893%, 54.73938%, 80.393982%)" offset="0.65625"/><stop stop-opacity="1" stop-color="rgb(21.879578%, 55.023193%, 80.464172%)" offset="0.671875"/><stop stop-opacity="1" stop-color="rgb(22.242737%, 55.307007%, 80.534363%)" offset="0.6875"/><stop stop-opacity="1" stop-color="rgb(22.605896%, 55.589294%, 80.604553%)" offset="0.703125"/><stop stop-opacity="1" stop-color="rgb(22.969055%, 55.873108%, 80.674744%)" offset="0.71875"/><stop stop-opacity="1" stop-color="rgb(23.332214%, 56.156921%, 80.744934%)" offset="0.734375"/><stop stop-opacity="1" stop-color="rgb(23.695374%, 56.439209%, 80.81665%)" offset="0.75"/><stop stop-opacity="1" stop-color="rgb(24.058533%, 56.723022%, 80.886841%)" offset="0.765625"/><stop stop-opacity="1" stop-color="rgb(24.421692%, 57.006836%, 80.957031%)" offset="0.78125"/><stop stop-opacity="1" stop-color="rgb(24.786377%, 57.289124%, 81.027222%)" offset="0.796875"/><stop stop-opacity="1" stop-color="rgb(25.149536%, 57.572937%, 81.097412%)" offset="0.8125"/><stop stop-opacity="1" stop-color="rgb(25.512695%, 57.85675%, 81.167603%)" offset="0.828125"/><stop stop-opacity="1" stop-color="rgb(25.875854%, 58.139038%, 81.239319%)" offset="0.84375"/><stop stop-opacity="1" stop-color="rgb(26.239014%, 58.422852%, 81.309509%)" offset="0.859375"/><stop stop-opacity="1" stop-color="rgb(26.602173%, 58.706665%, 81.3797%)" offset="0.875"/><stop stop-opacity="1" stop-color="rgb(26.965332%, 58.990479%, 81.44989%)" offset="0.890625"/><stop stop-opacity="1" stop-color="rgb(27.328491%, 59.272766%, 81.520081%)" offset="0.90625"/><stop stop-opacity="1" stop-color="rgb(27.693176%, 59.55658%, 81.590271%)" offset="0.921875"/><stop stop-opacity="1" stop-color="rgb(28.056335%, 59.840393%, 81.660461%)" offset="0.9375"/><stop stop-opacity="1" stop-color="rgb(28.419495%, 60.122681%, 81.732178%)" offset="0.953125"/><stop stop-opacity="1" stop-color="rgb(28.782654%, 60.406494%, 81.802368%)" offset="0.96875"/><stop stop-opacity="1" stop-color="rgb(29.145813%, 60.690308%, 81.872559%)" offset="0.984375"/><stop stop-opacity="1" stop-color="rgb(29.508972%, 60.972595%, 81.942749%)" offset="1"/></linearGradient><clipPath id="4d696c7df3"><path d="M 0.304688 0 L 374.695312 0 L 374.695312 614 L 0.304688 614 Z M 0.304688 0 " clip-rule="nonzero"/></clipPath><linearGradient x1="-1.058107" gradientTransform="matrix(0.000000000000001167, -19.053001, 19.053, 0.000000000000001167, 414.482021, 522.486016)" y1="0" x2="1.019479" gradientUnits="userSpaceOnUse" y2="0" id="f09655f6e2"><stop stop-opacity="1" stop-color="rgb(17.999268%, 42.399597%, 59.199524%)" offset="0"/><stop stop-opacity="1" stop-color="rgb(17.999268%, 42.399597%, 59.199524%)" offset="0.5"/><stop stop-opacity="1" stop-color="rgb(18.025208%, 42.457581%, 59.281921%)" offset="0.515625"/><stop stop-opacity="1" stop-color="rgb(18.083191%, 42.590332%, 59.466553%)" offset="0.523437"/><stop stop-opacity="1" stop-color="rgb(18.148804%, 42.736816%, 59.671021%)" offset="0.53125"/><stop stop-opacity="1" stop-color="rgb(18.214417%, 42.883301%, 59.875488%)" offset="0.539062"/><stop stop-opacity="1" stop-color="rgb(18.278503%, 43.028259%, 60.079956%)" offset="0.546875"/><stop stop-opacity="1" stop-color="rgb(18.344116%, 43.174744%, 60.28595%)" offset="0.554687"/><stop stop-opacity="1" stop-color="rgb(18.408203%, 43.321228%, 60.490417%)" offset="0.5625"/><stop stop-opacity="1" stop-color="rgb(18.473816%, 43.466187%, 60.694885%)" offset="0.570312"/><stop stop-opacity="1" stop-color="rgb(18.537903%, 43.612671%, 60.899353%)" offset="0.578125"/><stop stop-opacity="1" stop-color="rgb(18.603516%, 43.759155%, 61.103821%)" offset="0.585937"/><stop stop-opacity="1" stop-color="rgb(18.667603%, 43.90564%, 61.308289%)" offset="0.59375"/><stop stop-opacity="1" stop-color="rgb(18.733215%, 44.050598%, 61.512756%)" offset="0.601562"/><stop stop-opacity="1" stop-color="rgb(18.797302%, 44.197083%, 61.717224%)" offset="0.609375"/><stop stop-opacity="1" stop-color="rgb(18.862915%, 44.343567%, 61.921692%)" offset="0.617187"/><stop stop-opacity="1" stop-color="rgb(18.928528%, 44.490051%, 62.12616%)" offset="0.625"/><stop stop-opacity="1" stop-color="rgb(18.992615%, 44.63501%, 62.330627%)" offset="0.632812"/><stop stop-opacity="1" stop-color="rgb(19.058228%, 44.781494%, 62.535095%)" offset="0.640625"/><stop stop-opacity="1" stop-color="rgb(19.122314%, 44.927979%, 62.739563%)" offset="0.648437"/><stop stop-opacity="1" stop-color="rgb(19.187927%, 45.074463%, 62.944031%)" offset="0.65625"/><stop stop-opacity="1" stop-color="rgb(19.252014%, 45.219421%, 63.148499%)" offset="0.664062"/><stop stop-opacity="1" stop-color="rgb(19.317627%, 45.365906%, 63.352966%)" offset="0.671875"/><stop stop-opacity="1" stop-color="rgb(19.381714%, 45.51239%, 63.557434%)" offset="0.679687"/><stop stop-opacity="1" stop-color="rgb(19.447327%, 45.657349%, 63.761902%)" offset="0.6875"/><stop stop-opacity="1" stop-color="rgb(19.512939%, 45.803833%, 63.96637%)" offset="0.695312"/><stop stop-opacity="1" stop-color="rgb(19.577026%, 45.950317%, 64.170837%)" offset="0.703125"/><stop stop-opacity="1" stop-color="rgb(19.642639%, 46.096802%, 64.375305%)" offset="0.710937"/><stop stop-opacity="1" stop-color="rgb(19.706726%, 46.24176%, 64.579773%)" offset="0.71875"/><stop stop-opacity="1" stop-color="rgb(19.772339%, 46.388245%, 64.784241%)" offset="0.726562"/><stop stop-opacity="1" stop-color="rgb(19.836426%, 46.534729%, 64.988708%)" offset="0.734375"/><stop stop-opacity="1" stop-color="rgb(19.902039%, 46.681213%, 65.193176%)" offset="0.742187"/><stop stop-opacity="1" stop-color="rgb(19.966125%, 46.826172%, 65.397644%)" offset="0.75"/><stop stop-opacity="1" stop-color="rgb(20.031738%, 46.972656%, 65.602112%)" offset="0.757812"/><stop stop-opacity="1" stop-color="rgb(20.095825%, 47.119141%, 65.80658%)" offset="0.765625"/><stop stop-opacity="1" stop-color="rgb(20.161438%, 47.265625%, 66.011047%)" offset="0.773437"/><stop stop-opacity="1" stop-color="rgb(20.227051%, 47.410583%, 66.215515%)" offset="0.78125"/><stop stop-opacity="1" stop-color="rgb(20.291138%, 47.557068%, 66.419983%)" offset="0.789062"/><stop stop-opacity="1" stop-color="rgb(20.35675%, 47.703552%, 66.624451%)" offset="0.796875"/><stop stop-opacity="1" stop-color="rgb(20.420837%, 47.850037%, 66.828918%)" offset="0.804687"/><stop stop-opacity="1" stop-color="rgb(20.48645%, 47.994995%, 67.033386%)" offset="0.8125"/><stop stop-opacity="1" stop-color="rgb(20.550537%, 48.141479%, 67.237854%)" offset="0.820312"/><stop stop-opacity="1" stop-color="rgb(20.61615%, 48.287964%, 67.443848%)" offset="0.828125"/><stop stop-opacity="1" stop-color="rgb(20.680237%, 48.432922%, 67.648315%)" offset="0.835937"/><stop stop-opacity="1" stop-color="rgb(20.74585%, 48.579407%, 67.852783%)" offset="0.84375"/><stop stop-opacity="1" stop-color="rgb(20.811462%, 48.725891%, 68.057251%)" offset="0.851562"/><stop stop-opacity="1" stop-color="rgb(20.875549%, 48.872375%, 68.261719%)" offset="0.859375"/><stop stop-opacity="1" stop-color="rgb(20.941162%, 49.017334%, 68.466187%)" offset="0.867187"/><stop stop-opacity="1" stop-color="rgb(21.005249%, 49.163818%, 68.670654%)" offset="0.875"/><stop stop-opacity="1" stop-color="rgb(21.070862%, 49.310303%, 68.875122%)" offset="0.882812"/><stop stop-opacity="1" stop-color="rgb(21.134949%, 49.456787%, 69.07959%)" offset="0.890625"/><stop stop-opacity="1" stop-color="rgb(21.200562%, 49.601746%, 69.284058%)" offset="0.898437"/><stop stop-opacity="1" stop-color="rgb(21.264648%, 49.74823%, 69.488525%)" offset="0.90625"/><stop stop-opacity="1" stop-color="rgb(21.330261%, 49.894714%, 69.692993%)" offset="0.914062"/><stop stop-opacity="1" stop-color="rgb(21.394348%, 50.041199%, 69.897461%)" offset="0.921875"/><stop stop-opacity="1" stop-color="rgb(21.459961%, 50.186157%, 70.101929%)" offset="0.929687"/><stop stop-opacity="1" stop-color="rgb(21.525574%, 50.332642%, 70.306396%)" offset="0.9375"/><stop stop-opacity="1" stop-color="rgb(21.589661%, 50.479126%, 70.510864%)" offset="0.945312"/><stop stop-opacity="1" stop-color="rgb(21.655273%, 50.624084%, 70.715332%)" offset="0.953125"/><stop stop-opacity="1" stop-color="rgb(21.71936%, 50.770569%, 70.9198%)" offset="0.960937"/><stop stop-opacity="1" stop-color="rgb(21.784973%, 50.917053%, 71.124268%)" offset="0.96875"/><stop stop-opacity="1" stop-color="rgb(21.84906%, 51.063538%, 71.328735%)" offset="0.976562"/><stop stop-opacity="1" stop-color="rgb(21.914673%, 51.208496%, 71.533203%)" offset="0.984375"/><stop stop-opacity="1" stop-color="rgb(21.972656%, 51.339722%, 71.716309%)" offset="1"/></linearGradient><clipPath id="34683a58ff"><path d="M 107.371094 120.527344 L 268.113281 120.527344 L 268.113281 281.269531 L 107.371094 281.269531 Z M 107.371094 120.527344 " clip-rule="nonzero"/></clipPath><clipPath id="d1fc9a50b3"><path d="M 268.113281 200.898438 C 268.113281 156.507812 232.128906 120.527344 187.742188 120.527344 C 143.355469 120.527344 107.371094 156.507812 107.371094 200.898438 C 107.371094 245.285156 143.355469 281.269531 187.742188 281.269531 C 232.128906 281.269531 268.113281 245.285156 268.113281 200.898438 Z M 268.113281 200.898438 " clip-rule="nonzero"/></clipPath><linearGradient x1="-0.0000232621" gradientTransform="matrix(0, 0.6279, -0.6279, 0, 268.113951, 120.525424)" y1="128" x2="255.999947" gradientUnits="userSpaceOnUse" y2="128" id="c2c243883d"><stop stop-opacity="1" stop-color="rgb(25.898743%, 57.998657%, 81.199646%)" offset="0"/><stop stop-opacity="1" stop-color="rgb(25.793457%, 57.919312%, 81.17981%)" offset="0.03125"/><stop stop-opacity="1" stop-color="rgb(25.584412%, 57.759094%, 81.143188%)" offset="0.0625"/><stop stop-opacity="1" stop-color="rgb(25.375366%, 57.600403%, 81.105042%)" offset="0.09375"/><stop stop-opacity="1" stop-color="rgb(25.166321%, 57.441711%, 81.066895%)" offset="0.125"/><stop stop-opacity="1" stop-color="rgb(24.95575%, 57.281494%, 81.030273%)" offset="0.15625"/><stop stop-opacity="1" stop-color="rgb(24.746704%, 57.122803%, 80.992126%)" offset="0.1875"/><stop stop-opacity="1" stop-color="rgb(24.537659%, 56.962585%, 80.955505%)" offset="0.21875"/><stop stop-opacity="1" stop-color="rgb(24.328613%, 56.803894%, 80.917358%)" offset="0.25"/><stop stop-opacity="1" stop-color="rgb(24.119568%, 56.643677%, 80.880737%)" offset="0.28125"/><stop stop-opacity="1" stop-color="rgb(23.908997%, 56.484985%, 80.84259%)" offset="0.3125"/><stop stop-opacity="1" stop-color="rgb(23.699951%, 56.324768%, 80.804443%)" offset="0.34375"/><stop stop-opacity="1" stop-color="rgb(23.490906%, 56.166077%, 80.767822%)" offset="0.375"/><stop stop-opacity="1" stop-color="rgb(23.28186%, 56.007385%, 80.729675%)" offset="0.40625"/><stop stop-opacity="1" stop-color="rgb(23.072815%, 55.847168%, 80.693054%)" offset="0.4375"/><stop stop-opacity="1" stop-color="rgb(22.862244%, 55.688477%, 80.654907%)" offset="0.46875"/><stop stop-opacity="1" stop-color="rgb(22.653198%, 55.528259%, 80.618286%)" offset="0.5"/><stop stop-opacity="1" stop-color="rgb(22.444153%, 55.369568%, 80.580139%)" offset="0.53125"/><stop stop-opacity="1" stop-color="rgb(22.235107%, 55.209351%, 80.541992%)" offset="0.5625"/><stop stop-opacity="1" stop-color="rgb(22.024536%, 55.050659%, 80.505371%)" offset="0.59375"/><stop stop-opacity="1" stop-color="rgb(21.815491%, 54.890442%, 80.467224%)" offset="0.625"/><stop stop-opacity="1" stop-color="rgb(21.606445%, 54.73175%, 80.430603%)" offset="0.65625"/><stop stop-opacity="1" stop-color="rgb(21.3974%, 54.573059%, 80.392456%)" offset="0.6875"/><stop stop-opacity="1" stop-color="rgb(21.188354%, 54.412842%, 80.354309%)" offset="0.71875"/><stop stop-opacity="1" stop-color="rgb(20.977783%, 54.25415%, 80.317688%)" offset="0.75"/><stop stop-opacity="1" stop-color="rgb(20.768738%, 54.093933%, 80.279541%)" offset="0.78125"/><stop stop-opacity="1" stop-color="rgb(20.559692%, 53.935242%, 80.24292%)" offset="0.8125"/><stop stop-opacity="1" stop-color="rgb(20.350647%, 53.775024%, 80.204773%)" offset="0.84375"/><stop stop-opacity="1" stop-color="rgb(20.140076%, 53.616333%, 80.168152%)" offset="0.875"/><stop stop-opacity="1" stop-color="rgb(19.93103%, 53.456116%, 80.130005%)" offset="0.90625"/><stop stop-opacity="1" stop-color="rgb(19.721985%, 53.297424%, 80.091858%)" offset="0.9375"/><stop stop-opacity="1" stop-color="rgb(19.512939%, 53.137207%, 80.055237%)" offset="0.96875"/><stop stop-opacity="1" stop-color="rgb(19.303894%, 52.978516%, 80.01709%)" offset="1"/></linearGradient><clipPath id="88a5d66ca6"><path d="M 144 127.195312 L 308.03125 127.195312 L 308.03125 242 L 144 242 Z M 144 127.195312 " clip-rule="nonzero"/></clipPath><clipPath id="88843994f5"><path d="M 66.925781 159 L 150 159 L 150 264 L 66.925781 264 Z M 66.925781 159 " clip-rule="nonzero"/></clipPath><clipPath id="ec7846dc26"><path d="M 244 240 L 279 240 L 279 274.703125 L 244 274.703125 Z M 244 240 " clip-rule="nonzero"/></clipPath><clipPath id="039356564f"><path d="M 204 240 L 239 240 L 239 274.703125 L 204 274.703125 Z M 204 240 " clip-rule="nonzero"/></clipPath><clipPath id="fa94ebdfca"><path d="M 122 241 L 156 241 L 156 274.703125 L 122 274.703125 Z M 122 241 " clip-rule="nonzero"/></clipPath><clipPath id="ac7609add2"><path d="M 79 242 L 112 242 L 112 274.703125 L 79 274.703125 Z M 79 242 " clip-rule="nonzero"/></clipPath></defs><path fill="#ffffff" d="M 256.285156 199.363281 C 256.285156 237.398438 225.558594 268.121094 187.511719 268.121094 C 149.46875 268.121094 118.742188 237.398438 118.742188 199.363281 C 118.742188 161.324219 149.46875 130.601562 187.511719 130.601562 C 225.558594 130.601562 256.285156 161.324219 256.285156 199.363281 Z M 256.285156 199.363281 " fill-opacity="1" fill-rule="evenodd"/><g clip-path="url(#64707d79e3)"><g clip-path="url(#f1b3700b6e)"><path fill="url(#4bf672f3d0)" d="M 11.921875 588.445312 L 363.101562 588.445312 L 363.101562 25.445312 L 11.921875 25.445312 Z M 11.921875 588.445312 " fill-rule="nonzero"/></g></g><g clip-path="url(#4d696c7df3)"><path stroke-linecap="round" transform="matrix(14.632482, 0, 0, 14.62943, -5906.915295, -7342.109412)" fill="none" stroke-linejoin="miter" d="M 416.543924 503.611869 C 409.970898 503.611869 404.499872 509.302987 404.499872 515.477933 C 404.499872 518.255937 406.063975 521.786118 407.194006 524.223948 L 416.499876 542.095938 L 425.761964 524.223948 C 426.891995 521.786118 428.49988 518.432967 428.49988 515.477933 C 428.49988 509.302987 423.11695 503.611869 416.543924 503.611869 Z M 416.543924 510.76702 C 419.128072 510.784109 421.222887 512.888973 421.222887 515.476865 C 421.222887 518.065023 419.128072 520.139982 416.543924 520.156003 C 413.960043 520.138914 411.864961 518.066091 411.864961 515.476865 C 411.864961 512.888973 413.960043 510.784109 416.543924 510.76702 Z M 416.543924 510.76702 " stroke="url(#f09655f6e2)" stroke-width="1.1" stroke-miterlimit="4"/></g><g clip-path="url(#34683a58ff)"><g clip-path="url(#d1fc9a50b3)"><path fill="url(#c2c243883d)" d="M 268.113281 120.527344 L 107.371094 120.527344 L 107.371094 281.269531 L 268.113281 281.269531 Z M 268.113281 120.527344 " fill-rule="nonzero"/></g></g><g clip-path="url(#88a5d66ca6)"><path fill="#231f20" d="M 308.007812 146.597656 L 307.734375 146.375 C 306.578125 146.300781 305.445312 146.078125 304.285156 146.054688 C 303.128906 146.03125 301.328125 145.5625 299.800781 145.488281 C 298.988281 145.289062 298.175781 145.316406 297.363281 145.242188 C 292.457031 144.5 287.503906 144.203125 282.601562 143.464844 C 279.050781 143.195312 275.550781 142.527344 272.003906 142.304688 C 267.148438 141.492188 262.195312 141.292969 257.339844 140.503906 C 255.316406 140.375 253.300781 140.125 251.304688 139.765625 C 249.085938 139.640625 246.890625 139.199219 244.648438 139.097656 C 243.097656 138.851562 241.546875 138.730469 239.992188 138.53125 L 233.832031 137.867188 C 231.785156 137.472656 229.691406 137.421875 227.644531 137.101562 C 226.734375 136.929688 225.773438 137.078125 224.886719 136.753906 C 222.175781 136.460938 219.488281 136.164062 216.804688 135.792969 C 214.808594 135.570312 212.859375 135.203125 210.839844 135.152344 C 208.820312 135.101562 206.921875 134.683594 204.976562 134.339844 C 203.027344 133.992188 200.984375 133.96875 199.035156 133.597656 C 197.558594 133.476562 196.078125 133.230469 194.601562 133.179688 C 190.484375 132.390625 186.246094 132.292969 182.105469 131.625 C 176.757812 130.933594 171.335938 130.539062 166.015625 129.652344 C 163.96875 129.554688 161.949219 129.160156 159.902344 128.984375 C 158.425781 128.714844 156.894531 128.664062 155.417969 128.417969 C 153.027344 128.371094 150.6875 127.777344 148.296875 127.605469 C 146.988281 127.554688 145.707031 127.210938 144.402344 127.308594 L 146.078125 130.886719 C 147.039062 132.734375 148.097656 134.511719 148.960938 136.386719 L 149.257812 136.804688 C 150.980469 140.308594 153.003906 143.664062 154.605469 147.238281 C 155 148.054688 155.539062 148.769531 155.886719 149.605469 C 156.550781 151.136719 157.5625 152.515625 158.175781 154.070312 C 158.644531 154.984375 159.015625 155.972656 159.582031 156.835938 C 160.148438 157.699219 160.542969 158.363281 160.492188 159.277344 C 160.492188 186.523438 160.492188 213.773438 160.492188 241.019531 L 207.636719 241.019531 C 208.644531 241.070312 209.433594 240.328125 210.296875 239.910156 C 212.203125 238.914062 214.183594 238.101562 216.238281 237.46875 C 219.292969 236.628906 222.519531 236.726562 225.625 237.246094 C 228.214844 238.035156 230.800781 238.875 233.117188 240.28125 C 233.683594 240.625 234.273438 241.019531 234.964844 241.019531 L 248.839844 241.019531 C 252.585938 238.996094 256.550781 237 260.890625 236.828125 C 262.933594 236.800781 265.054688 236.652344 267.050781 237.222656 C 268.035156 237.417969 268.996094 237.738281 269.957031 237.960938 C 270.917969 238.183594 272.152344 238.847656 273.234375 239.367188 C 274.320312 239.886719 275.40625 240.304688 276.339844 240.996094 L 291.273438 240.996094 C 291.324219 240.648438 291.375 240.28125 291.445312 239.933594 C 291.621094 238.183594 291.890625 236.433594 292.1875 234.679688 C 293.023438 228.195312 293.910156 221.730469 294.945312 215.269531 C 295.488281 210.285156 296.300781 205.351562 297.015625 200.394531 C 297.484375 196.867188 298.125 193.363281 298.519531 189.835938 C 298.964844 187.816406 299.0625 185.71875 299.382812 183.671875 C 299.824219 181.03125 300.195312 178.367188 300.492188 175.703125 C 301.058594 173.558594 301.132812 171.289062 301.5 169.09375 C 302.167969 165.886719 302.117188 162.53125 303.226562 159.425781 L 308.03125 159.425781 C 307.984375 155.109375 308.03125 150.839844 308.007812 146.597656 Z M 210.347656 213.074219 L 192.332031 213.074219 C 191.488281 212.828125 190.730469 212.417969 190.066406 211.839844 C 189.742188 211.398438 189.445312 210.9375 189.179688 210.457031 C 188.292969 209.078125 187.109375 207.941406 186.195312 206.585938 C 184.816406 204.734375 183.386719 202.933594 182.203125 200.9375 C 181.835938 200.320312 181.664062 199.628906 181.441406 198.964844 C 181.21875 196.992188 182.648438 195.410156 183.484375 193.757812 C 184.324219 192.105469 185.0625 190.972656 185.679688 189.515625 C 186.8125 187.59375 187.871094 185.621094 188.808594 183.597656 C 188.6875 183.25 188.265625 183.277344 187.996094 183.128906 L 187.011719 183.84375 C 185.703125 182.980469 184.226562 182.5625 182.746094 182.140625 C 183.609375 181.820312 184.570312 181.871094 185.382812 181.378906 C 186.886719 180.464844 188.734375 180.441406 190.214844 179.476562 C 191.199219 179.035156 191.914062 178.21875 192.726562 177.578125 C 194.132812 176.371094 194.773438 174.542969 196.027344 173.1875 C 196.636719 173.503906 197.257812 173.773438 197.902344 174 C 200.882812 175.828125 204.136719 177.085938 207.09375 178.933594 C 206.527344 179.601562 206.183594 180.390625 205.8125 181.179688 C 206.007812 181.425781 206.207031 181.699219 206.402344 181.96875 L 205.984375 182.042969 C 206.304688 182.660156 206.625 183.300781 206.921875 183.941406 C 207.882812 185.25 208.277344 186.828125 208.96875 188.285156 C 209.261719 188.828125 209.730469 189.246094 210.074219 189.761719 C 208.84375 189.148438 207.859375 188.183594 206.578125 187.714844 C 205.296875 187.246094 204.554688 186.507812 203.519531 185.964844 C 202.980469 187.394531 201.945312 188.578125 201.375 190.011719 C 200.804688 191.257812 200.144531 192.457031 199.40625 193.613281 C 198.023438 196.078125 196.695312 198.570312 195.460938 201.109375 C 199.378906 201.183594 203.300781 201.035156 207.242188 201.035156 C 209.238281 201.132812 211.234375 200.765625 213.230469 200.863281 C 213.253906 204.882812 213.179688 208.929688 213.230469 212.949219 C 212.21875 213.171875 211.285156 213.046875 210.347656 213.074219 Z M 214.117188 166.035156 C 212.566406 168.574219 211.136719 171.191406 209.609375 173.753906 C 209.261719 174.394531 208.992188 175.085938 208.695312 175.753906 C 207.414062 174.964844 206.109375 174.199219 204.851562 173.359375 C 202.804688 172.078125 200.636719 171.042969 198.667969 169.636719 C 200.070312 167.242188 201.253906 164.753906 202.730469 162.410156 C 203.839844 160.632812 204.851562 158.78125 205.886719 156.980469 C 206.921875 155.179688 207.414062 153.847656 208.644531 152.589844 C 209.535156 151.925781 210.496094 151.308594 211.605469 151.085938 C 214.609375 150.914062 217.46875 150 220.449219 149.707031 C 221.390625 149.519531 222.320312 149.550781 223.246094 149.792969 C 224.171875 150.035156 224.996094 150.464844 225.722656 151.085938 L 225.847656 151.582031 C 227.5 152.765625 228.410156 154.664062 229.640625 156.21875 C 231.390625 158.3125 232.894531 160.632812 234.71875 162.679688 L 234.988281 161.941406 L 235.851562 163.691406 C 235.902344 163 235.976562 162.261719 235.605469 161.644531 C 236.371094 161.078125 236.984375 160.289062 237.875 159.84375 C 239.128906 159.128906 240.214844 158.09375 241.570312 157.523438 L 241.398438 157.96875 C 241.347656 159.300781 240.214844 160.3125 240.289062 161.644531 C 240.335938 163.765625 240.191406 165.910156 240.386719 168.007812 C 241.371094 168.746094 242.160156 169.683594 243.097656 170.5 C 242.085938 170.917969 241.296875 171.734375 240.335938 172.203125 C 237.554688 173.730469 235.628906 176.8125 232.328125 177.355469 C 231.492188 176.46875 230.800781 175.40625 229.863281 174.617188 C 228.433594 174.175781 226.882812 174.46875 225.429688 174.570312 C 224.566406 174.570312 223.726562 174.570312 222.867188 174.59375 C 224.074219 173.65625 224.320312 171.953125 225.453125 170.941406 C 225.257812 170.179688 224.515625 169.785156 224.046875 169.191406 C 223.582031 168.601562 222.617188 167.859375 222.050781 167.070312 C 220.574219 165.121094 218.726562 163.519531 216.828125 162.015625 C 215.84375 163.347656 214.78125 164.578125 214.117188 166.035156 Z M 256.453125 202.144531 C 255.140625 205.046875 253.664062 207.855469 252.019531 210.582031 C 250.761719 212.53125 248.445312 213.789062 246.105469 213.617188 C 243.761719 213.441406 241.347656 213.617188 238.957031 213.566406 C 235.484375 213.296875 232.007812 213.46875 228.535156 213.417969 C 228.335938 215.167969 228.089844 216.894531 227.941406 218.648438 C 226.691406 216.632812 225.285156 214.734375 223.726562 212.949219 L 223.53125 212.703125 C 221.335938 213.097656 219.070312 212.480469 216.902344 212.800781 C 216.851562 211.394531 217.023438 209.941406 216.730469 208.558594 C 217 207.078125 216.878906 205.574219 216.703125 204.09375 C 216.953125 203.082031 217.199219 202.046875 217.125 200.988281 C 218.800781 201.0625 220.671875 201.332031 222.152344 200.371094 C 223.0625 199.65625 224.121094 199.0625 224.738281 198.027344 C 225.355469 196.992188 226.191406 195.929688 226.585938 194.722656 C 227.375 194.84375 227.746094 195.660156 227.917969 196.347656 C 228.214844 197.632812 228.410156 198.964844 228.707031 200.246094 C 234.398438 200.222656 240.066406 200.269531 245.757812 200.222656 C 244.796875 198.125 243.8125 196.027344 242.433594 194.179688 C 241.667969 192.796875 240.730469 191.515625 240.164062 190.058594 C 238.414062 187.101562 236.566406 184.214844 234.964844 181.179688 C 235.355469 180.832031 235.785156 180.535156 236.246094 180.292969 L 235.484375 180.21875 C 235.949219 179.75 236.640625 179.722656 237.207031 179.429688 C 239.105469 177.503906 241.398438 176.050781 243.589844 174.496094 C 244.007812 174.175781 244.304688 173.65625 244.871094 173.558594 C 245.539062 174.496094 246.003906 175.582031 246.621094 176.542969 C 247.632812 178.738281 249.011719 180.734375 250.144531 182.855469 C 251.96875 185.816406 253.523438 188.972656 255.394531 191.910156 C 256.378906 193.660156 257.761719 195.339844 257.734375 197.433594 C 257.636719 199.085938 256.996094 200.617188 256.453125 202.144531 Z M 256.453125 202.144531 " fill-opacity="1" fill-rule="nonzero"/></g><g clip-path="url(#88843994f5)"><path fill="#231f20" d="M 135.777344 234.164062 C 138.265625 233.421875 140.558594 232.089844 143.046875 231.398438 C 143.859375 231.128906 144.699219 231.003906 145.511719 230.734375 C 146.742188 230.167969 147.777344 229.230469 148.886719 228.464844 C 148.863281 229.164062 148.886719 229.863281 148.960938 230.5625 C 149.15625 229.574219 149.257812 228.539062 149.40625 227.550781 C 149.421875 206.339844 149.429688 185.117188 149.429688 163.886719 C 149.550781 161.519531 147.554688 159.003906 145.09375 159.128906 L 113.992188 159.128906 C 112.441406 159.128906 110.9375 159.570312 109.433594 159.941406 C 105.5625 160.929688 102.238281 163.296875 99.355469 166.011719 C 97.257812 168.304688 95.484375 170.917969 93.785156 173.53125 C 92.625 175.605469 91.148438 177.480469 90.015625 179.550781 C 89.523438 180.441406 88.832031 181.203125 88.3125 182.066406 C 84.789062 187.914062 81.019531 193.585938 77.472656 199.40625 C 75.796875 201.652344 74.636719 204.21875 72.984375 206.488281 C 71.828125 208.164062 70.917969 209.988281 69.78125 211.667969 C 69.019531 212.726562 68.402344 213.910156 67.613281 214.949219 C 67.289062 215.332031 67.058594 215.769531 66.925781 216.253906 L 66.925781 263.195312 L 75.375 263.195312 C 74.96875 259.460938 75.320312 255.804688 76.4375 252.21875 C 77.078125 250.390625 77.960938 248.691406 79.085938 247.113281 C 80.207031 245.539062 81.527344 244.148438 83.039062 242.945312 C 84.839844 241.511719 86.835938 240.207031 89.078125 239.640625 C 94.351562 237.910156 100.191406 238.332031 105.316406 240.378906 C 106.207031 240.75 106.945312 241.390625 107.78125 241.859375 C 109.410156 242.699219 110.714844 244.027344 111.972656 245.335938 C 113.089844 246.511719 114.109375 247.769531 115.027344 249.109375 C 115.617188 248.308594 116.25 247.542969 116.925781 246.816406 C 118.253906 245.089844 120.003906 243.734375 121.679688 242.375 C 123.355469 241.019531 125.378906 239.910156 127.152344 238.578125 C 129.921875 236.902344 132.796875 235.429688 135.777344 234.164062 Z M 103.890625 212.480469 L 102.65625 212.480469 C 102.078125 212.460938 101.503906 212.484375 100.929688 212.554688 C 99.058594 212.53125 97.160156 212.382812 95.289062 212.578125 C 92.675781 212.53125 90.0625 212.703125 87.476562 212.457031 C 87.304688 211.445312 87.921875 210.582031 88.289062 209.667969 C 89.027344 208.140625 90.0625 206.808594 90.851562 205.328125 C 91.640625 203.847656 92.75 202.320312 93.589844 200.738281 C 94.941406 198.667969 95.953125 196.398438 97.433594 194.425781 C 98.148438 193.09375 98.886719 191.761719 99.625 190.429688 C 101.917969 187.097656 103.714844 183.472656 105.933594 180.09375 C 106.5 179.082031 106.992188 178.046875 107.707031 177.132812 C 108.421875 176.222656 109.582031 174.890625 110.789062 174.050781 C 112.761719 172.71875 115.027344 171.683594 117.441406 171.660156 L 136.589844 171.660156 C 136.613281 184.039062 136.589844 196.421875 136.589844 208.804688 C 136.613281 209.890625 136.21875 211.050781 135.285156 211.667969 C 134.003906 212.679688 132.253906 212.480469 130.75 212.433594 C 121.804688 212.457031 112.835938 212.382812 103.890625 212.480469 Z M 103.890625 212.480469 " fill-opacity="1" fill-rule="nonzero"/></g><path fill="#231f20" d="M 205.984375 181.945312 C 206.082031 181.523438 205.9375 181.351562 205.566406 181.476562 C 205.195312 181.597656 205.617188 182.042969 205.984375 181.945312 Z M 205.984375 181.945312 " fill-opacity="1" fill-rule="nonzero"/><g clip-path="url(#ec7846dc26)"><path fill="#231f20" d="M 276.6875 248.960938 C 276.070312 247.605469 274.984375 246.570312 274.050781 245.410156 C 272.324219 243.511719 270.007812 242.328125 267.691406 241.292969 C 266.460938 240.773438 265.152344 240.601562 263.871094 240.328125 C 258.941406 239.664062 253.941406 241.539062 250.242188 244.769531 C 247.386719 247.507812 245.242188 251.183594 244.921875 255.179688 C 244.625 257.300781 244.675781 259.496094 245.289062 261.542969 C 245.710938 263.070312 246.203125 264.625 247.089844 265.980469 C 247.976562 267.339844 248.566406 268.425781 249.652344 269.363281 C 250.738281 270.296875 251.746094 271.089844 252.855469 271.851562 C 254.65625 273.035156 256.726562 273.628906 258.796875 274.195312 C 259.902344 274.417969 261.039062 274.246094 262.148438 274.417969 C 265.003906 274.320312 267.914062 273.628906 270.351562 272.097656 C 272.25 271.210938 273.703125 269.65625 275.183594 268.226562 C 277.105469 265.636719 278.558594 262.578125 278.855469 259.347656 C 279.175781 257.300781 278.929688 255.203125 278.410156 253.179688 C 278.1875 251.652344 277.351562 250.320312 276.6875 248.960938 Z M 276.6875 248.960938 " fill-opacity="1" fill-rule="nonzero"/></g><g clip-path="url(#039356564f)"><path fill="#231f20" d="M 229.765625 242.597656 C 228.460938 241.933594 227.179688 241.167969 225.75 240.824219 C 224.320312 240.476562 223.1875 240.28125 221.878906 240.253906 C 220.574219 240.230469 219.09375 240.503906 217.714844 240.601562 C 217 240.871094 216.238281 240.996094 215.523438 241.242188 C 213.230469 242.449219 210.742188 243.535156 208.96875 245.535156 C 208.574219 246.003906 208.152344 246.472656 207.734375 246.941406 C 206.550781 248.273438 205.910156 249.949219 205.222656 251.550781 C 204.332031 254.140625 203.941406 256.953125 204.480469 259.644531 C 204.800781 263.589844 206.921875 267.167969 209.632812 269.953125 C 211.898438 271.558594 214.214844 273.257812 217 273.851562 C 218.429688 274.417969 219.957031 274.292969 221.460938 274.492188 C 222.964844 274.6875 223.925781 274.367188 225.132812 274.023438 C 226.339844 273.679688 228.015625 273.429688 229.199219 272.542969 C 230.382812 271.65625 232.179688 270.867188 233.3125 269.558594 C 234.054688 268.71875 234.867188 267.929688 235.484375 266.992188 C 236.492188 265.585938 237.035156 263.910156 237.675781 262.332031 C 239.082031 257.523438 238.21875 252.195312 235.628906 247.925781 C 233.980469 245.828125 232.179688 243.757812 229.765625 242.597656 Z M 229.765625 242.597656 " fill-opacity="1" fill-rule="nonzero"/></g><g clip-path="url(#fa94ebdfca)"><path fill="#231f20" d="M 153.421875 250.714844 C 153.027344 249.703125 152.289062 248.914062 151.671875 248.050781 C 150.390625 246.59375 149.058594 245.164062 147.382812 244.175781 C 143.589844 241.882812 138.832031 241.019531 134.542969 242.277344 C 133.089844 242.945312 131.367188 243.117188 130.109375 244.175781 C 128.851562 245.238281 127.839844 245.507812 127.128906 246.621094 C 126.308594 247.238281 125.691406 248.019531 125.277344 248.960938 C 124.617188 249.972656 124.050781 251.03125 123.578125 252.144531 C 123.085938 253.945312 122.394531 255.746094 122.542969 257.644531 C 122.296875 261.097656 123.554688 264.453125 125.277344 267.363281 L 125.671875 267.660156 L 125.96875 268.324219 C 127.027344 269.707031 128.484375 270.742188 129.863281 271.777344 C 132.253906 273.109375 134.863281 274.34375 137.648438 274.320312 C 139.046875 274.347656 140.445312 274.308594 141.839844 274.195312 C 144.058594 273.503906 146.347656 272.890625 148.171875 271.410156 C 149.726562 270.421875 150.957031 269.039062 152.066406 267.609375 C 153.175781 266.179688 153.496094 264.898438 154.136719 263.492188 C 154.777344 262.085938 155.21875 260.285156 155.074219 258.605469 C 155.246094 255.894531 154.457031 253.230469 153.421875 250.714844 Z M 153.421875 250.714844 " fill-opacity="1" fill-rule="nonzero"/></g><g clip-path="url(#ac7609add2)"><path fill="#231f20" d="M 109.554688 250.195312 C 108.988281 249.457031 108.546875 248.59375 107.929688 247.878906 C 106.773438 246.71875 105.613281 245.558594 104.234375 244.644531 C 102.9375 243.90625 101.582031 243.300781 100.167969 242.820312 C 99.429688 242.574219 98.589844 242.648438 97.902344 242.253906 C 96.503906 242.183594 95.105469 242.191406 93.710938 242.277344 C 92.554688 242.699219 91.296875 242.746094 90.164062 243.265625 C 88.488281 243.878906 86.960938 244.753906 85.585938 245.890625 C 84.214844 247.03125 83.070312 248.367188 82.152344 249.898438 C 79.714844 253.671875 79.367188 258.507812 80.503906 262.800781 C 80.945312 263.785156 81.21875 264.871094 81.710938 265.835938 C 82.203125 266.796875 82.84375 267.882812 83.730469 268.695312 C 85.234375 270.472656 87.179688 271.777344 89.226562 272.839844 C 90.164062 273.457031 91.320312 273.53125 92.355469 273.925781 C 94.375 274.441406 96.472656 274.367188 98.542969 274.195312 L 99.96875 273.875 C 102.753906 273.160156 105.195312 271.507812 107.414062 269.730469 C 107.539062 269.101562 107.859375 268.589844 108.375 268.203125 C 109.507812 267.214844 110.097656 265.761719 110.664062 264.402344 C 111.230469 263.046875 111.652344 261.765625 111.726562 260.332031 C 111.820312 258.746094 111.792969 257.15625 111.652344 255.574219 C 111.011719 253.773438 110.691406 251.800781 109.554688 250.195312 Z M 109.554688 250.195312 " fill-opacity="1" fill-rule="nonzero"/></g><path fill="#231f20" d="M 198.9375 259.125 C 198.914062 255.226562 198.9375 251.355469 198.914062 247.457031 L 160 247.457031 C 160.015625 252.523438 160.015625 257.585938 160 262.652344 C 173.039062 262.652344 186.046875 262.675781 199.058594 262.652344 C 199.058594 262.453125 199.035156 262.035156 199.035156 261.839844 C 198.863281 260.949219 198.960938 260.011719 198.9375 259.125 Z M 198.9375 259.125 " fill-opacity="1" fill-rule="nonzero"/><path fill="#231f20" d="M 286.421875 251.652344 C 286.394531 255.597656 286.421875 259.519531 286.421875 263.464844 C 288.292969 263.515625 290.140625 263.464844 292.015625 263.492188 C 292.039062 259.542969 292.0625 255.597656 292.015625 251.675781 L 286.421875 251.675781 Z M 286.421875 251.652344 " fill-opacity="1" fill-rule="nonzero"/></svg>